<mxfile host="app.diagrams.net" modified="2022-10-24T08:51:42.780Z" agent="5.0 (Macintosh; Intel Mac OS X 10_15_7) AppleWebKit/537.36 (KHTML, like Gecko) Chrome/106.0.0.0 Safari/537.36" etag="TgDvldALhjZlxUDvuttr" version="20.2.7" type="github" pages="5">
  <diagram id="C5RBs43oDa-KdzZeNtuy" name="Overview">
    <mxGraphModel dx="2061" dy="713" grid="1" gridSize="10" guides="1" tooltips="1" connect="1" arrows="1" fold="1" page="1" pageScale="1" pageWidth="827" pageHeight="1169" math="0" shadow="0">
      <root>
        <mxCell id="WIyWlLk6GJQsqaUBKTNV-0" />
        <mxCell id="WIyWlLk6GJQsqaUBKTNV-1" parent="WIyWlLk6GJQsqaUBKTNV-0" />
        <mxCell id="eCzIvkl2hQFghsilQjpC-0" value="User" style="shape=umlActor;verticalLabelPosition=bottom;verticalAlign=top;html=1;outlineConnect=0;" vertex="1" parent="WIyWlLk6GJQsqaUBKTNV-1">
          <mxGeometry x="70" y="30" width="30" height="60" as="geometry" />
        </mxCell>
        <mxCell id="eCzIvkl2hQFghsilQjpC-1" value="Website" style="rounded=0;whiteSpace=wrap;html=1;" vertex="1" parent="WIyWlLk6GJQsqaUBKTNV-1">
          <mxGeometry x="230" y="30" width="290" height="60" as="geometry" />
        </mxCell>
        <mxCell id="eCzIvkl2hQFghsilQjpC-2" value="" style="endArrow=classic;startArrow=classic;html=1;rounded=0;entryX=0;entryY=0.5;entryDx=0;entryDy=0;" edge="1" parent="WIyWlLk6GJQsqaUBKTNV-1" source="eCzIvkl2hQFghsilQjpC-0" target="eCzIvkl2hQFghsilQjpC-1">
          <mxGeometry width="50" height="50" relative="1" as="geometry">
            <mxPoint x="390" y="260" as="sourcePoint" />
            <mxPoint x="440" y="210" as="targetPoint" />
          </mxGeometry>
        </mxCell>
        <mxCell id="eCzIvkl2hQFghsilQjpC-3" value="Query" style="text;html=1;align=center;verticalAlign=middle;resizable=0;points=[];autosize=1;strokeColor=none;fillColor=none;" vertex="1" parent="WIyWlLk6GJQsqaUBKTNV-1">
          <mxGeometry x="130" y="40" width="60" height="30" as="geometry" />
        </mxCell>
        <mxCell id="eCzIvkl2hQFghsilQjpC-4" value="" style="endArrow=none;dashed=1;html=1;rounded=0;" edge="1" parent="WIyWlLk6GJQsqaUBKTNV-1">
          <mxGeometry width="50" height="50" relative="1" as="geometry">
            <mxPoint x="30" y="120" as="sourcePoint" />
            <mxPoint x="800" y="120" as="targetPoint" />
          </mxGeometry>
        </mxCell>
        <mxCell id="eCzIvkl2hQFghsilQjpC-5" value="Claims" style="shape=cylinder3;whiteSpace=wrap;html=1;boundedLbl=1;backgroundOutline=1;size=15;" vertex="1" parent="WIyWlLk6GJQsqaUBKTNV-1">
          <mxGeometry x="270" y="520" width="60" height="80" as="geometry" />
        </mxCell>
        <mxCell id="eCzIvkl2hQFghsilQjpC-6" value="Autocomplete" style="rounded=0;whiteSpace=wrap;html=1;" vertex="1" parent="WIyWlLk6GJQsqaUBKTNV-1">
          <mxGeometry x="170" y="140" width="120" height="60" as="geometry" />
        </mxCell>
        <mxCell id="eCzIvkl2hQFghsilQjpC-7" value="" style="endArrow=classic;startArrow=classic;html=1;rounded=0;entryX=0;entryY=1;entryDx=0;entryDy=0;" edge="1" parent="WIyWlLk6GJQsqaUBKTNV-1" source="eCzIvkl2hQFghsilQjpC-6" target="eCzIvkl2hQFghsilQjpC-1">
          <mxGeometry width="50" height="50" relative="1" as="geometry">
            <mxPoint x="390" y="330" as="sourcePoint" />
            <mxPoint x="440" y="280" as="targetPoint" />
          </mxGeometry>
        </mxCell>
        <mxCell id="eCzIvkl2hQFghsilQjpC-8" value="&lt;ol&gt;&lt;li&gt;Spell Check&lt;/li&gt;&lt;li&gt;Query Expansion&lt;/li&gt;&lt;li&gt;Intent Detection&lt;/li&gt;&lt;li&gt;Entity Extraction&lt;/li&gt;&lt;/ol&gt;" style="rounded=0;whiteSpace=wrap;html=1;align=left;" vertex="1" parent="WIyWlLk6GJQsqaUBKTNV-1">
          <mxGeometry x="305" y="140" width="140" height="190" as="geometry" />
        </mxCell>
        <mxCell id="eCzIvkl2hQFghsilQjpC-9" value="Typeahead" style="text;html=1;align=center;verticalAlign=middle;resizable=0;points=[];autosize=1;strokeColor=none;fillColor=none;" vertex="1" parent="WIyWlLk6GJQsqaUBKTNV-1">
          <mxGeometry x="160" y="90" width="80" height="30" as="geometry" />
        </mxCell>
        <mxCell id="eCzIvkl2hQFghsilQjpC-10" value="" style="endArrow=classic;startArrow=classic;html=1;rounded=0;entryX=0.5;entryY=1;entryDx=0;entryDy=0;" edge="1" parent="WIyWlLk6GJQsqaUBKTNV-1" target="eCzIvkl2hQFghsilQjpC-1">
          <mxGeometry width="50" height="50" relative="1" as="geometry">
            <mxPoint x="375" y="140" as="sourcePoint" />
            <mxPoint x="440" y="280" as="targetPoint" />
          </mxGeometry>
        </mxCell>
        <mxCell id="eCzIvkl2hQFghsilQjpC-11" value="Query Handler" style="text;html=1;strokeColor=none;fillColor=none;align=center;verticalAlign=middle;whiteSpace=wrap;rounded=0;" vertex="1" parent="WIyWlLk6GJQsqaUBKTNV-1">
          <mxGeometry x="305" y="140" width="105" height="30" as="geometry" />
        </mxCell>
        <mxCell id="eCzIvkl2hQFghsilQjpC-12" value="" style="endArrow=none;dashed=1;html=1;rounded=0;" edge="1" parent="WIyWlLk6GJQsqaUBKTNV-1">
          <mxGeometry width="50" height="50" relative="1" as="geometry">
            <mxPoint x="29" y="490" as="sourcePoint" />
            <mxPoint x="799" y="490" as="targetPoint" />
          </mxGeometry>
        </mxCell>
        <mxCell id="eCzIvkl2hQFghsilQjpC-13" value="Content" style="shape=cylinder3;whiteSpace=wrap;html=1;boundedLbl=1;backgroundOutline=1;size=15;" vertex="1" parent="WIyWlLk6GJQsqaUBKTNV-1">
          <mxGeometry x="365" y="520" width="60" height="80" as="geometry" />
        </mxCell>
        <mxCell id="eCzIvkl2hQFghsilQjpC-14" value="Benefits" style="shape=cylinder3;whiteSpace=wrap;html=1;boundedLbl=1;backgroundOutline=1;size=15;" vertex="1" parent="WIyWlLk6GJQsqaUBKTNV-1">
          <mxGeometry x="460" y="520" width="60" height="80" as="geometry" />
        </mxCell>
        <mxCell id="eCzIvkl2hQFghsilQjpC-15" value="Providers" style="shape=cylinder3;whiteSpace=wrap;html=1;boundedLbl=1;backgroundOutline=1;size=15;" vertex="1" parent="WIyWlLk6GJQsqaUBKTNV-1">
          <mxGeometry x="560" y="520" width="60" height="80" as="geometry" />
        </mxCell>
        <mxCell id="eCzIvkl2hQFghsilQjpC-17" value="&lt;ol&gt;&lt;li&gt;Business Rules&lt;/li&gt;&lt;li&gt;Aggregator&lt;/li&gt;&lt;li&gt;Ranker&lt;/li&gt;&lt;/ol&gt;" style="rounded=0;whiteSpace=wrap;html=1;align=left;" vertex="1" parent="WIyWlLk6GJQsqaUBKTNV-1">
          <mxGeometry x="485" y="140" width="140" height="190" as="geometry" />
        </mxCell>
        <mxCell id="eCzIvkl2hQFghsilQjpC-18" value="" style="endArrow=classic;html=1;rounded=0;entryX=1;entryY=1;entryDx=0;entryDy=0;exitX=0.25;exitY=0;exitDx=0;exitDy=0;" edge="1" parent="WIyWlLk6GJQsqaUBKTNV-1" source="eCzIvkl2hQFghsilQjpC-17" target="eCzIvkl2hQFghsilQjpC-1">
          <mxGeometry width="50" height="50" relative="1" as="geometry">
            <mxPoint x="390" y="260" as="sourcePoint" />
            <mxPoint x="440" y="210" as="targetPoint" />
          </mxGeometry>
        </mxCell>
        <mxCell id="eCzIvkl2hQFghsilQjpC-19" value="&lt;ul&gt;&lt;li&gt;Ads Injection&lt;/li&gt;&lt;li&gt;Telemetry&lt;/li&gt;&lt;li&gt;UI SDK&lt;/li&gt;&lt;li&gt;Data Specific Queries&lt;/li&gt;&lt;/ul&gt;" style="text;html=1;align=left;verticalAlign=middle;resizable=0;points=[];autosize=1;strokeColor=none;fillColor=none;" vertex="1" parent="WIyWlLk6GJQsqaUBKTNV-1">
          <mxGeometry x="-5" y="590" width="180" height="100" as="geometry" />
        </mxCell>
        <mxCell id="eCzIvkl2hQFghsilQjpC-20" value="&lt;ol style=&quot;text-align: left;&quot;&gt;&lt;li&gt;Query Federation&lt;/li&gt;&lt;/ol&gt;" style="rounded=0;whiteSpace=wrap;html=1;" vertex="1" parent="WIyWlLk6GJQsqaUBKTNV-1">
          <mxGeometry x="305" y="360" width="325" height="60" as="geometry" />
        </mxCell>
        <mxCell id="eCzIvkl2hQFghsilQjpC-21" value="Results Handler" style="text;html=1;strokeColor=none;fillColor=none;align=center;verticalAlign=middle;whiteSpace=wrap;rounded=0;" vertex="1" parent="WIyWlLk6GJQsqaUBKTNV-1">
          <mxGeometry x="485" y="140" width="105" height="30" as="geometry" />
        </mxCell>
        <mxCell id="eCzIvkl2hQFghsilQjpC-22" value="" style="endArrow=classic;html=1;rounded=0;exitX=0.5;exitY=1;exitDx=0;exitDy=0;entryX=0.25;entryY=0;entryDx=0;entryDy=0;" edge="1" parent="WIyWlLk6GJQsqaUBKTNV-1" source="eCzIvkl2hQFghsilQjpC-8" target="eCzIvkl2hQFghsilQjpC-20">
          <mxGeometry width="50" height="50" relative="1" as="geometry">
            <mxPoint x="390" y="290" as="sourcePoint" />
            <mxPoint x="440" y="240" as="targetPoint" />
          </mxGeometry>
        </mxCell>
        <mxCell id="eCzIvkl2hQFghsilQjpC-23" value="" style="endArrow=classic;startArrow=classic;html=1;rounded=0;entryX=0.5;entryY=1;entryDx=0;entryDy=0;exitX=0.5;exitY=0;exitDx=0;exitDy=0;exitPerimeter=0;" edge="1" parent="WIyWlLk6GJQsqaUBKTNV-1" source="eCzIvkl2hQFghsilQjpC-5" target="eCzIvkl2hQFghsilQjpC-20">
          <mxGeometry width="50" height="50" relative="1" as="geometry">
            <mxPoint x="390" y="460" as="sourcePoint" />
            <mxPoint x="440" y="410" as="targetPoint" />
          </mxGeometry>
        </mxCell>
        <mxCell id="eCzIvkl2hQFghsilQjpC-24" value="" style="endArrow=classic;startArrow=classic;html=1;rounded=0;exitX=0.5;exitY=0;exitDx=0;exitDy=0;exitPerimeter=0;" edge="1" parent="WIyWlLk6GJQsqaUBKTNV-1" source="eCzIvkl2hQFghsilQjpC-13">
          <mxGeometry width="50" height="50" relative="1" as="geometry">
            <mxPoint x="310" y="530" as="sourcePoint" />
            <mxPoint x="470" y="420" as="targetPoint" />
          </mxGeometry>
        </mxCell>
        <mxCell id="eCzIvkl2hQFghsilQjpC-26" value="" style="endArrow=classic;startArrow=classic;html=1;rounded=0;exitX=0.5;exitY=0;exitDx=0;exitDy=0;exitPerimeter=0;entryX=0.5;entryY=1;entryDx=0;entryDy=0;" edge="1" parent="WIyWlLk6GJQsqaUBKTNV-1" source="eCzIvkl2hQFghsilQjpC-14" target="eCzIvkl2hQFghsilQjpC-20">
          <mxGeometry width="50" height="50" relative="1" as="geometry">
            <mxPoint x="405" y="530" as="sourcePoint" />
            <mxPoint x="480" y="430" as="targetPoint" />
          </mxGeometry>
        </mxCell>
        <mxCell id="eCzIvkl2hQFghsilQjpC-27" value="" style="endArrow=classic;startArrow=classic;html=1;rounded=0;exitX=0.5;exitY=0;exitDx=0;exitDy=0;exitPerimeter=0;" edge="1" parent="WIyWlLk6GJQsqaUBKTNV-1" source="eCzIvkl2hQFghsilQjpC-15">
          <mxGeometry width="50" height="50" relative="1" as="geometry">
            <mxPoint x="500" y="530" as="sourcePoint" />
            <mxPoint x="470" y="420" as="targetPoint" />
          </mxGeometry>
        </mxCell>
      </root>
    </mxGraphModel>
  </diagram>
  <diagram id="17lUD7wGkmwb5h1A1C-U" name="Query Handler">
    <mxGraphModel dx="1234" dy="713" grid="1" gridSize="10" guides="1" tooltips="1" connect="1" arrows="1" fold="1" page="1" pageScale="1" pageWidth="850" pageHeight="1100" math="0" shadow="0">
      <root>
        <mxCell id="0" />
        <mxCell id="1" parent="0" />
      </root>
    </mxGraphModel>
  </diagram>
  <diagram id="pSluEj5Vxgvpdy9OLWcX" name="Results Handler">
    <mxGraphModel dx="1234" dy="713" grid="1" gridSize="10" guides="1" tooltips="1" connect="1" arrows="1" fold="1" page="1" pageScale="1" pageWidth="850" pageHeight="1100" math="0" shadow="0">
      <root>
        <mxCell id="0" />
        <mxCell id="1" parent="0" />
      </root>
    </mxGraphModel>
  </diagram>
  <diagram id="Rqi80mp-10NSuuA8C8Gl" name="Benefits">
    <mxGraphModel dx="1234" dy="713" grid="1" gridSize="10" guides="1" tooltips="1" connect="1" arrows="1" fold="1" page="1" pageScale="1" pageWidth="850" pageHeight="1100" math="0" shadow="0">
      <root>
        <mxCell id="0" />
        <mxCell id="1" parent="0" />
      </root>
    </mxGraphModel>
  </diagram>
  <diagram id="G_JjgsEQdelsJ3DQHNQN" name="Claims">
    <mxGraphModel dx="1234" dy="713" grid="1" gridSize="10" guides="1" tooltips="1" connect="1" arrows="1" fold="1" page="1" pageScale="1" pageWidth="850" pageHeight="1100" math="0" shadow="0">
      <root>
        <mxCell id="0" />
        <mxCell id="1" parent="0" />
      </root>
    </mxGraphModel>
  </diagram>
</mxfile>
